HIERARCHY
ROOT Hips
{
	OFFSET -3.958830 18.904000 13.208200
	CHANNELS 6 Xposition Yposition Zposition Zrotation Yrotation Xrotation 
	JOINT LHipJoint
	{
		OFFSET 0.000000 0.000000 0.000000
		CHANNELS 3 Zrotation Yrotation Xrotation
		JOINT LeftUpLeg
		{
			OFFSET 1.800000 -1.400000 0.085000
			CHANNELS 3 Zrotation Yrotation Xrotation
			JOINT LeftLeg
			{
				OFFSET 2.215000 -6.000000 0.000000
				CHANNELS 3 Zrotation Yrotation Xrotation
				JOINT LeftFoot
				{
					OFFSET 2.500000 -6.900000 0.000000
					CHANNELS 3 Zrotation Yrotation Xrotation
					JOINT LeftToeBase
					{
						OFFSET 0.200000 -0.500000 1.950000
						CHANNELS 3 Zrotation Yrotation Xrotation
						End Site
						{
							OFFSET 0.000000 0.000000 0.000000
						}
					}
				}
			}
		}
	}
	JOINT RHipJoint
	{
		OFFSET 0.000000 0.000000 0.000000
		CHANNELS 3 Zrotation Yrotation Xrotation
		JOINT RightUpLeg
		{
			OFFSET -1.800000 -1.400000 0.085000
			CHANNELS 3 Zrotation Yrotation Xrotation
			JOINT RightLeg
			{
				OFFSET -2.215000 -6.000000 0.000000
				CHANNELS 3 Zrotation Yrotation Xrotation
				JOINT RightFoot
				{
					OFFSET -2.500000 -6.900000 0.000000
					CHANNELS 3 Zrotation Yrotation Xrotation
					JOINT RightToeBase
					{
						OFFSET -0.200000 -0.500000 1.950000
						CHANNELS 3 Zrotation Yrotation Xrotation
						End Site
						{
							OFFSET 0.000000 0.000000 0.000000
						}
					}
				}
			}
		}
	}
	JOINT LowerBack
	{
		OFFSET 0.000000 0.000000 0.000000
		CHANNELS 3 Zrotation Yrotation Xrotation
		JOINT Spine
		{
			OFFSET -0.087000 1.940000 -0.288900
			CHANNELS 3 Zrotation Yrotation Xrotation
			JOINT Spine1
			{
				OFFSET 0.000000 1.950000 0.060000
				CHANNELS 3 Zrotation Yrotation Xrotation
				JOINT Neck
				{
					OFFSET 0.000000 0.000000 0.000000
					CHANNELS 3 Zrotation Yrotation Xrotation
					JOINT Neck1
					{
						OFFSET 0.000000 1.600000 0.340000
						CHANNELS 3 Zrotation Yrotation Xrotation
						JOINT Head
						{
							OFFSET 0.000000 1.667000 -0.240000
							CHANNELS 3 Zrotation Yrotation Xrotation
							End Site
							{
								OFFSET 0.000000 0.000000 0.000000
							}
						}
					}
				}
				JOINT LeftShoulder
				{
					OFFSET 0.000000 0.000000 0.000000
					CHANNELS 3 Zrotation Yrotation Xrotation
					JOINT LeftArm
					{
						OFFSET 2.700000 1.550000 -0.730000
						CHANNELS 3 Zrotation Yrotation Xrotation
						JOINT LeftForeArm
						{
							OFFSET 5.450000 0.000000 0.000000
							CHANNELS 3 Zrotation Yrotation Xrotation
							JOINT LeftHand
							{
								OFFSET 3.450000 0.000000 0.000000
								CHANNELS 3 Zrotation Yrotation Xrotation
								JOINT LeftHandIndex1
								{
									OFFSET 0.750000 0.000000 0.000000
									CHANNELS 3 Zrotation Yrotation Xrotation
									End Site
									{
										OFFSET 0.000000 0.000000 0.000000
									}
								}
							}
						}
					}
				}
				JOINT RightShoulder
				{
					OFFSET 0.000000 0.000000 0.000000
					CHANNELS 3 Zrotation Yrotation Xrotation
					JOINT RightArm
					{
						OFFSET -2.700000 1.550000 -0.730000
						CHANNELS 3 Zrotation Yrotation Xrotation
						JOINT RightForeArm
						{
							OFFSET -5.450000 0.000000 0.000000
							CHANNELS 3 Zrotation Yrotation Xrotation
							JOINT RightHand
							{
								OFFSET -3.450000 0.000000 0.000000
								CHANNELS 3 Zrotation Yrotation Xrotation
								JOINT RightHandIndex1
								{
									OFFSET -0.750000 0.000000 0.000000
									CHANNELS 3 Zrotation Yrotation Xrotation
									End Site
									{
										OFFSET 0.000000 0.000000 0.000000
									}
								}
							}
						}
					}
				}
			}
		}
	}
}
MOTION
Frames: 7
Frame Time: 0.016667
1.454290 15.982240 -0.120380 -1.194713 -52.445691 -0.377958 -15.283235 11.384779 4.794063 -15.610640 -2.816667 -56.109452 -9.708964 2.468631 -8.311250 -1.241599 2.235038 3.898367 0.711730 0.190050 0.619680 18.252586 -10.501838 3.623510 4.277051 -4.143055 12.691708 6.615095 -5.953981 0.810228 -0.861477 -5.208843 3.055834 0.318010 0.080540 0.059850 -3.787405 -0.117901 -8.745973 17.695486 11.470801 29.298370 6.652048 17.125598 6.633201 1.741414 -4.172069 -8.186927 -6.792444 3.546361 42.659471 -7.764730 4.570140 -14.286490 -24.323112 -4.079781 5.228294 -20.107961 21.223165 -3.785836 29.134567 -10.932177 -2.049303 -3.845443 2.726096 0.854060 0.114370 -0.076800 0.249980 19.714563 18.606214 1.944863 16.901804 29.622664 -5.471365 -21.728029 32.083787 -5.670997 1.695574 -1.314093 -0.451980 0.349110 -0.177120 -0.542230 
1.503610 15.978380 -0.091420 -2.203597 -51.565691 -2.436382 -15.178005 11.927593 4.605024 -15.838364 -2.175052 -53.468567 -5.932404 2.864623 -3.046841 -1.268369 1.878005 4.030051 0.605010 0.065110 0.545120 18.234942 -10.642797 3.741330 4.529360 -4.217513 13.310867 6.456986 -6.414873 4.072019 -0.850334 -5.226349 3.072054 0.213750 0.094710 0.029630 -3.766246 -0.559553 -8.687040 20.621599 8.944331 33.484851 3.522052 16.847002 4.860463 2.494443 -5.298036 -10.399320 -8.404370 4.701283 45.964894 -6.993100 4.724070 -12.831600 -25.360389 -5.564853 6.285459 -22.329746 29.548696 -6.557272 38.152010 -18.619308 -4.846686 -3.787244 2.732773 0.897820 0.083740 -0.077740 0.220550 19.519263 21.557402 3.430928 16.137592 31.363010 -4.917956 -19.358804 21.271907 -4.066071 1.899755 -1.217598 -0.472010 0.366390 -0.115670 -0.536710 
1.553410 15.995310 -0.070480 -2.778667 -47.676028 -3.406060 -15.048733 12.057272 4.615427 -17.430132 -3.232467 -49.564112 -2.259254 2.693035 1.866205 -1.315221 1.512120 4.168754 0.596820 0.050700 0.550360 18.325020 -10.846838 3.727227 6.471161 -3.985313 10.247367 6.029782 -6.601508 9.525436 -0.777922 -5.031265 3.127663 0.196280 0.071340 0.020100 -4.014899 -0.355530 -8.569975 23.869180 6.282109 34.459265 1.208108 15.227797 4.306439 3.036694 -5.391430 -11.242631 -7.984170 4.777266 47.244172 -7.106420 4.793640 -12.341710 -25.400274 -6.397299 6.024268 -25.737330 28.910123 -8.561653 48.824129 -19.065212 -6.901178 -3.781488 2.755930 0.910120 0.063780 -0.069400 0.208360 18.511314 21.953092 4.451394 17.671238 31.805171 -4.799947 -20.116013 16.761112 -4.041122 1.987119 -1.233344 -0.468630 0.354350 -0.113820 -0.544200 
1.569110 16.015860 -0.026020 -2.997955 -46.459224 -4.372647 -14.953164 12.108155 4.592415 -17.157029 -3.522549 -46.873337 1.820923 2.419974 7.862102 -1.405492 1.588331 4.111434 0.560920 -0.062320 0.645610 18.383502 -11.110368 3.677719 6.649727 -2.356758 7.810236 6.185287 -6.981796 16.361360 -0.743029 -5.179346 3.014538 0.160010 0.012600 0.054430 -4.244863 0.167463 -8.423851 26.388161 6.337804 34.612882 -0.165346 15.925433 3.622385 3.636039 -2.601878 -10.303486 -2.382686 2.196651 47.383316 -10.642820 5.624010 -12.744970 -26.193162 -5.180677 4.597310 -23.062823 29.445913 -9.837904 57.799606 -32.427882 -15.251082 -3.878167 2.686113 0.961030 0.072170 -0.073450 0.110840 17.563702 18.512044 4.580218 22.332205 30.109693 -5.286170 -23.211191 19.472167 -5.112345 1.903285 -1.283286 -0.507090 0.301250 -0.064170 -0.640940 
1.573290 16.045150 0.042730 -3.302095 -47.771385 -4.244463 -14.848379 12.112120 4.532232 -15.510706 -3.388677 -45.416867 4.823420 2.209119 13.860943 -1.309877 1.892810 3.978621 0.557660 -0.045550 0.665140 18.438101 -11.440257 3.623089 5.943624 0.699913 4.232188 6.759927 -7.380315 24.636462 -0.775492 -5.566680 2.900401 0.142800 -0.011890 0.068940 -4.597501 0.954435 -8.266337 28.720331 6.762474 34.138111 -1.948806 16.747601 2.895494 4.046230 -0.805536 -9.834858 1.684551 1.366991 47.511120 -12.740900 7.630440 -12.642240 -26.098219 -3.813076 3.508626 -24.225364 28.106629 -11.460729 69.214867 -38.755617 -23.026066 -3.970408 2.604590 0.942830 0.093520 -0.046560 0.113890 16.203112 15.653054 4.969960 29.457952 28.425236 -6.142461 -28.209518 25.049656 -7.571129 1.807168 -1.344877 -0.480420 0.271400 -0.091970 -0.646180 
1.574980 16.078510 0.117610 -3.565638 -50.171164 -3.613461 -14.790565 12.060219 4.447259 -13.132213 -3.153869 -45.190404 6.133443 2.508081 21.119748 -1.137162 2.648777 3.667129 0.549190 -0.047260 0.657090 18.466356 -11.605534 3.656581 4.550825 5.253366 0.062734 8.571745 -8.240310 33.703748 -0.894076 -6.355540 2.638617 0.114100 -0.035650 0.067260 -4.937841 1.682075 -8.176846 31.159373 8.298017 33.911632 -2.618775 19.037039 1.980450 3.922460 -0.147072 -9.366743 3.107448 0.336652 47.329803 -13.063720 7.818380 -12.112360 -23.639241 -0.396786 2.446819 -28.463738 23.848539 -12.868245 79.962056 -50.473334 -36.336146 -3.984593 2.398231 0.928410 0.083770 -0.033760 0.126630 13.350420 12.110538 5.484250 37.427021 23.427496 -8.185960 -35.018486 34.563693 -12.030588 1.700494 -1.343837 -0.454790 0.233670 -0.120930 -0.635900 
1.613970 16.123720 0.147870 -4.841638 -46.854357 -1.798630 -14.735224 11.629953 4.371014 -12.068370 -4.291014 -43.594400 7.320847 2.438313 26.559341 -1.017893 3.407584 3.429380 0.515580 -0.073430 0.582890 18.637218 -11.174911 3.966646 3.264524 11.399050 -7.624106 15.125008 -11.759900 43.116624 -1.210641 -7.882223 2.149325 0.108380 0.046860 0.046010 -5.432125 2.052816 -8.263447 35.178882 5.991734 32.373452 -4.795113 16.500614 1.550010 3.697100 -1.775060 -7.853005 -0.333993 1.566785 45.467713 -11.587400 6.860410 -11.866000 -22.667365 3.052103 2.423855 -32.902634 21.240333 -13.012010 93.945614 -55.949289 -51.854860 -3.898368 1.966612 0.905010 0.110370 -0.080670 0.166980 12.612182 8.073060 3.724106 42.176752 21.485648 -8.896962 -38.556143 45.320262 -16.179063 1.515763 -1.154479 -0.484620 0.281850 -0.108830 -0.600320 
